<svg width="195" height="37" fill="none" xmlns="http://www.w3.org/2000/svg"><path d="M45.722 11.053c1.658 0 2.868.357 3.63 1.072.761.709 1.142 1.688 1.142 2.935 0 .563-.085 1.102-.255 1.618-.17.51-.448.964-.835 1.362-.38.399-.89.715-1.529.95-.639.228-1.427.342-2.364.342h-1.17v4.57h-2.724v-12.85h4.105zm-.14 2.232h-1.24V17.1h.896c.51 0 .952-.068 1.327-.203.375-.134.666-.345.87-.632.206-.288.308-.657.308-1.108 0-.633-.176-1.101-.527-1.406-.352-.31-.897-.466-1.635-.466zm11.178.607c.909 0 1.691.175 2.347.527.657.346 1.163.85 1.52 1.512.358.662.537 1.47.537 2.425v1.301h-6.337c.03.756.255 1.35.677 1.784.428.428 1.02.642 1.775.642.627 0 1.201-.064 1.723-.193a8.769 8.769 0 001.608-.58v2.074c-.486.24-.996.416-1.529.527-.527.111-1.169.167-1.925.167-.984 0-1.857-.181-2.619-.545a4.068 4.068 0 01-1.784-1.66c-.428-.745-.642-1.683-.642-2.813 0-1.149.194-2.104.58-2.866.393-.767.938-1.341 1.635-1.722.697-.387 1.509-.58 2.435-.58zm.018 1.907c-.521 0-.955.167-1.3.5-.34.335-.537.86-.59 1.574h3.762a2.65 2.65 0 00-.22-1.063 1.651 1.651 0 00-.615-.739c-.27-.181-.615-.272-1.037-.272zm10.705 6.143c.293 0 .578-.029.853-.087.281-.06.56-.132.835-.22v1.995a4.897 4.897 0 01-1.072.316 6.815 6.815 0 01-1.389.132 4.229 4.229 0 01-1.582-.281 2.25 2.25 0 01-1.099-.993c-.263-.475-.395-1.134-.395-1.978V16.09H62.35v-1.134l1.476-.896.774-2.075h1.713v2.092h2.751v2.013h-2.75v4.737c0 .375.105.656.316.844.217.182.5.272.852.272zm12.674-10.889c1.658 0 2.868.357 3.63 1.072.762.709 1.143 1.688 1.143 2.935 0 .563-.085 1.102-.255 1.618-.17.51-.448.964-.835 1.362-.381.399-.89.715-1.53.95-.638.228-1.426.342-2.364.342h-1.169v4.57h-2.724v-12.85h4.104zm-.14 2.232h-1.24V17.1h.897c.51 0 .952-.068 1.327-.203.375-.134.665-.345.87-.632.205-.288.308-.657.308-1.108 0-.633-.176-1.101-.528-1.406-.351-.31-.896-.466-1.634-.466zm11.153.589c1.318 0 2.329.287 3.032.861.703.575 1.055 1.448 1.055 2.62v6.547h-1.872l-.519-1.336h-.07a4.98 4.98 0 01-.861.862c-.293.222-.63.386-1.011.492-.381.105-.844.158-1.389.158-.58 0-1.101-.111-1.564-.334a2.485 2.485 0 01-1.081-1.02c-.264-.462-.396-1.048-.396-1.757 0-1.043.366-1.81 1.099-2.303.732-.498 1.83-.773 3.296-.826l1.705-.053v-.43c0-.516-.135-.894-.404-1.134-.27-.24-.645-.36-1.126-.36-.474 0-.94.067-1.397.201-.457.135-.914.305-1.371.51l-.888-1.81a7.622 7.622 0 011.75-.65 8.486 8.486 0 012.012-.238zm1.424 5.476l-1.037.035c-.868.023-1.471.178-1.81.466-.335.287-.502.665-.502 1.133 0 .41.12.703.36.88.24.17.554.254.94.254.575 0 1.058-.17 1.451-.51.398-.34.598-.823.598-1.45v-.808zm12.287 1.634c0 .668-.158 1.234-.475 1.697-.31.457-.776.805-1.397 1.046-.621.234-1.395.351-2.321.351a10.19 10.19 0 01-1.766-.132 7.276 7.276 0 01-1.477-.44v-2.214c.534.24 1.105.44 1.714.598.615.152 1.154.228 1.617.228.522 0 .894-.076 1.117-.228.228-.159.342-.364.342-.616a.733.733 0 00-.14-.439c-.088-.135-.282-.284-.58-.448-.299-.17-.768-.39-1.407-.66-.615-.257-1.122-.518-1.52-.782-.393-.263-.686-.574-.879-.931-.188-.364-.281-.824-.281-1.38 0-.908.351-1.591 1.054-2.048.71-.463 1.656-.694 2.839-.694.61 0 1.19.061 1.741.184a8.54 8.54 0 011.713.589l-.808 1.934a13.796 13.796 0 00-1.38-.519 4.333 4.333 0 00-1.31-.202c-.392 0-.688.053-.887.158a.514.514 0 00-.299.483c0 .159.05.3.149.422.106.123.305.261.598.414.299.146.735.336 1.309.57.557.23 1.041.47 1.451.721.41.247.726.554.949.923.223.364.334.835.334 1.415zm8.947 0c0 .668-.158 1.234-.474 1.697-.311.457-.777.805-1.398 1.046-.621.234-1.394.351-2.32.351-.686 0-1.275-.044-1.767-.132a7.277 7.277 0 01-1.476-.44v-2.214c.533.24 1.104.44 1.713.598.616.152 1.155.228 1.618.228.521 0 .893-.076 1.116-.228.228-.159.343-.364.343-.616a.727.727 0 00-.141-.439c-.088-.135-.281-.284-.58-.448-.299-.17-.768-.39-1.406-.66a9.287 9.287 0 01-1.521-.782 2.656 2.656 0 01-.879-.931c-.187-.364-.281-.824-.281-1.38 0-.908.352-1.591 1.055-2.048.709-.463 1.655-.694 2.839-.694.609 0 1.189.061 1.74.184.556.123 1.128.32 1.714.589l-.809 1.934a13.705 13.705 0 00-1.38-.519 4.331 4.331 0 00-1.309-.202c-.393 0-.689.053-.888.158a.515.515 0 00-.299.483c0 .159.05.3.15.422.105.123.304.261.597.414.299.146.736.336 1.31.57.556.23 1.04.47 1.45.721.41.247.726.554.949.923.223.364.334.835.334 1.415zm7.559-7.092c1.107 0 2.001.43 2.68 1.292.686.86 1.029 2.124 1.029 3.788 0 1.113-.161 2.05-.484 2.812-.322.756-.767 1.327-1.336 1.714-.568.387-1.221.58-1.96.58-.474 0-.881-.058-1.221-.176a3.133 3.133 0 01-.87-.466 4.067 4.067 0 01-.624-.615h-.141a7.425 7.425 0 01.141 1.441v3.965h-2.681v-14.15h2.18l.378 1.274h.123a3.72 3.72 0 01.641-.73c.252-.223.554-.398.905-.527a3.506 3.506 0 011.24-.202zm-.862 2.144c-.468 0-.84.097-1.116.29-.275.194-.477.484-.606.87-.123.387-.191.876-.202 1.468v.29c0 .633.058 1.169.175 1.608.123.44.326.774.607 1.002.287.229.679.343 1.178.343.41 0 .747-.114 1.01-.343.264-.228.46-.562.589-1.002.135-.445.202-.987.202-1.626 0-.96-.149-1.684-.448-2.17-.299-.487-.762-.73-1.389-.73zm15.715 2.936c0 .82-.111 1.547-.334 2.18a4.297 4.297 0 01-.958 1.608c-.416.433-.92.761-1.511.984-.586.223-1.249.334-1.987.334a5.28 5.28 0 01-1.907-.334 4.243 4.243 0 01-1.503-.984 4.582 4.582 0 01-.984-1.609c-.229-.632-.343-1.359-.343-2.18 0-1.09.193-2.012.58-2.768a3.98 3.98 0 011.652-1.723c.715-.392 1.568-.588 2.558-.588.92 0 1.734.196 2.443.588a4.138 4.138 0 011.679 1.723c.41.756.615 1.679.615 2.769zm-6.794 0c0 .644.071 1.186.211 1.626.141.44.361.77.659.993.299.223.689.334 1.169.334.475 0 .859-.111 1.152-.334.299-.223.515-.554.65-.993.141-.44.211-.982.211-1.626 0-.65-.07-1.19-.211-1.617-.135-.434-.351-.76-.65-.976-.299-.217-.689-.325-1.169-.325-.709 0-1.225.243-1.547.73-.317.486-.475 1.215-.475 2.188zm14.493-5.08c.135 0 .29.008.466.026.182.012.328.03.44.053l-.202 2.513a1.626 1.626 0 00-.378-.061 3.815 3.815 0 00-.413-.026c-.346 0-.683.043-1.011.131a2.475 2.475 0 00-.87.431 2.035 2.035 0 00-.616.773c-.146.317-.219.707-.219 1.17v5h-2.681v-9.826h2.03l.396 1.652h.132c.193-.333.433-.638.72-.913a3.4 3.4 0 01.994-.668 2.9 2.9 0 011.212-.255zm6.83 8.05c.293 0 .577-.029.852-.087.281-.06.56-.132.835-.22v1.995a4.889 4.889 0 01-1.072.316 6.82 6.82 0 01-1.389.132 4.229 4.229 0 01-1.582-.281c-.463-.194-.829-.524-1.099-.993-.263-.475-.395-1.134-.395-1.978V16.09h-1.283v-1.134l1.476-.896.774-2.075h1.714v2.092h2.751v2.013H149.6v4.737c0 .375.105.656.316.844.217.182.501.272.853.272zm16.435 1.96l-.932-3.058h-4.684l-.932 3.058h-2.935L162.256 11h3.331l4.553 12.902h-2.936zm-1.582-5.343l-.932-2.989a29.15 29.15 0 00-.237-.764c-.094-.317-.19-.636-.29-.958-.094-.329-.17-.613-.228-.853-.059.24-.141.54-.247.897-.099.351-.196.685-.29 1.002a75.38 75.38 0 01-.202.676l-.923 2.989h3.349zm11.399-4.667c1.108 0 2.001.43 2.681 1.292.686.86 1.028 2.124 1.028 3.788 0 1.113-.161 2.05-.483 2.812-.322.756-.768 1.327-1.336 1.714-.568.387-1.222.58-1.96.58-.474 0-.882-.058-1.222-.176a3.162 3.162 0 01-.87-.466 4.16 4.16 0 01-.624-.615h-.14a7.418 7.418 0 01.14 1.441v3.965h-2.68v-14.15h2.179l.378 1.274h.123c.176-.264.39-.507.642-.73.252-.223.554-.398.905-.527a3.504 3.504 0 011.239-.202zm-.861 2.144c-.469 0-.841.097-1.116.29-.275.194-.478.484-.606.87-.124.387-.191.876-.203 1.468v.29c0 .633.059 1.169.176 1.608.123.44.325.774.607 1.002.287.229.679.343 1.177.343.41 0 .747-.114 1.011-.343.264-.228.46-.562.589-1.002.135-.445.202-.987.202-1.626 0-.96-.149-1.684-.448-2.17-.299-.487-.762-.73-1.389-.73zm12.252-2.144c1.108 0 2.001.43 2.681 1.292.685.86 1.028 2.124 1.028 3.788 0 1.113-.161 2.05-.483 2.812-.323.756-.768 1.327-1.336 1.714-.569.387-1.222.58-1.96.58-.475 0-.882-.058-1.222-.176a3.133 3.133 0 01-.87-.466 4.16 4.16 0 01-.624-.615h-.141a7.236 7.236 0 01.141 1.442v3.964h-2.681v-14.15h2.18l.378 1.274h.123c.176-.264.39-.507.642-.73.252-.223.553-.398.905-.527.357-.135.77-.202 1.239-.202zm-.861 2.144c-.469 0-.841.097-1.116.29-.276.194-.478.484-.607.87-.123.387-.19.876-.202 1.468v.29c0 .633.059 1.169.176 1.608.123.44.325.774.606 1.002.287.229.68.343 1.178.343.41 0 .747-.114 1.011-.343.263-.228.46-.562.589-1.002.134-.445.202-.987.202-1.626 0-.96-.15-1.684-.449-2.17-.298-.487-.761-.73-1.388-.73z" fill="#000"/><circle cx="18" cy="18" r="18" fill="#007AFE"/><path fill-rule="evenodd" clip-rule="evenodd" d="M14.692 7.063c1.57 0 2.845 1.998 2.845 4.46 0 2.463-1.274 4.46-2.845 4.46-1.57 0-2.845-1.995-2.845-4.46.002-2.462 1.275-4.46 2.845-4.46zM18.31 17.86c3.331.007 3.746 2.265 6.554 6.128 1.4 2.812-.418 4.584-3.534 3.825-1.413-.736-2.407-.996-3.404-.962-1.728.061-2.164 1.227-4.173 1.145-1.55-.043-2.249-.708-2.384-1.721-.146-1.077.26-1.757.755-2.647 1.921-3.466 3.907-6.202 6.186-5.768zm-9.112-4.18c-1.175.475-1.55 2.353-.837 4.193.711 1.84 2.24 2.948 3.414 2.473 1.175-.475 1.549-2.353.837-4.194-.711-1.84-2.24-2.948-3.414-2.473zm17.604 0c1.175.475 1.55 2.353.837 4.193-.711 1.84-2.241 2.948-3.414 2.473-1.175-.475-1.549-2.353-.837-4.194.711-1.84 2.24-2.948 3.414-2.473zM21.256 7c1.57 0 2.845 1.998 2.845 4.46 0 2.463-1.275 4.46-2.845 4.46-1.57 0-2.845-1.995-2.845-4.46C18.413 8.998 19.686 7 21.256 7z" fill="#fff"/></svg>