<svg width="195" height="37" fill="none" xmlns="http://www.w3.org/2000/svg"><path d="M45.722 11.15c1.658 0 2.868.358 3.63 1.073.761.709 1.142 1.687 1.142 2.935 0 .563-.085 1.102-.255 1.617a3.55 3.55 0 01-.835 1.363c-.38.398-.89.714-1.529.949-.639.228-1.427.343-2.364.343h-1.17V24h-2.724V11.15h4.105zm-.14 2.233h-1.24v3.814h.896c.51 0 .952-.067 1.327-.202s.666-.346.87-.633c.206-.287.308-.656.308-1.107 0-.633-.176-1.102-.527-1.406-.352-.31-.897-.466-1.635-.466zm11.178.607c.909 0 1.691.175 2.347.527.657.345 1.163.85 1.52 1.511.358.662.537 1.471.537 2.426v1.3h-6.337c.03.757.255 1.351.677 1.785.428.428 1.02.642 1.775.642.627 0 1.201-.065 1.723-.194a8.77 8.77 0 001.608-.58v2.074c-.486.24-.996.416-1.529.528-.527.111-1.169.167-1.925.167-.984 0-1.857-.182-2.619-.545a4.068 4.068 0 01-1.784-1.661c-.428-.744-.642-1.682-.642-2.813 0-1.148.194-2.103.58-2.865.393-.768.938-1.342 1.635-1.723.697-.386 1.509-.58 2.435-.58zm.018 1.906c-.521 0-.955.168-1.3.502-.34.333-.537.858-.59 1.573h3.762a2.65 2.65 0 00-.22-1.064 1.652 1.652 0 00-.615-.738c-.27-.182-.615-.273-1.037-.273zm10.705 6.144c.293 0 .578-.03.853-.088.281-.058.56-.132.835-.22v1.995a4.897 4.897 0 01-1.072.317 6.815 6.815 0 01-1.389.132 4.229 4.229 0 01-1.582-.281 2.253 2.253 0 01-1.099-.994c-.263-.474-.395-1.133-.395-1.977v-4.738H62.35v-1.133l1.476-.897.774-2.074h1.713v2.092h2.751v2.012h-2.75v4.738c0 .375.105.656.316.844.217.181.5.272.852.272zm12.674-10.89c1.658 0 2.868.358 3.63 1.073.762.709 1.143 1.687 1.143 2.935 0 .563-.085 1.102-.255 1.617a3.55 3.55 0 01-.835 1.363c-.381.398-.89.714-1.53.949-.638.228-1.426.343-2.364.343h-1.169V24h-2.724V11.15h4.104zm-.14 2.233h-1.24v3.814h.897c.51 0 .952-.067 1.327-.202s.665-.346.87-.633c.205-.287.308-.656.308-1.107 0-.633-.176-1.102-.528-1.406-.351-.31-.896-.466-1.634-.466zm11.153.589c1.318 0 2.329.287 3.032.861.703.574 1.055 1.447 1.055 2.62V24h-1.872l-.519-1.336h-.07a4.987 4.987 0 01-.861.861 2.96 2.96 0 01-1.011.493c-.381.105-.844.158-1.389.158-.58 0-1.101-.111-1.564-.334a2.485 2.485 0 01-1.081-1.02c-.264-.463-.396-1.049-.396-1.758 0-1.043.366-1.81 1.099-2.302.732-.498 1.83-.774 3.296-.826l1.705-.053v-.43c0-.517-.135-.894-.404-1.135-.27-.24-.645-.36-1.126-.36-.474 0-.94.067-1.397.202a10.82 10.82 0 00-1.371.51l-.888-1.81a7.622 7.622 0 011.75-.651 8.486 8.486 0 012.012-.237zm1.424 5.475l-1.037.035c-.868.024-1.471.18-1.81.466-.335.287-.502.665-.502 1.134 0 .41.12.703.36.879.24.17.554.255.94.255.575 0 1.058-.17 1.451-.51.398-.34.598-.823.598-1.45v-.809zm12.287 1.635c0 .668-.158 1.233-.475 1.696-.31.457-.776.806-1.397 1.046-.621.235-1.395.352-2.321.352a10.19 10.19 0 01-1.766-.132 7.27 7.27 0 01-1.477-.44V21.39c.534.24 1.105.44 1.714.597.615.153 1.154.229 1.617.229.522 0 .894-.076 1.117-.229.228-.158.342-.363.342-.615a.733.733 0 00-.14-.44c-.088-.134-.282-.284-.58-.448-.299-.17-.768-.39-1.407-.659-.615-.258-1.122-.518-1.52-.782-.393-.264-.686-.574-.879-.932-.188-.363-.281-.823-.281-1.38 0-.908.351-1.59 1.054-2.047.71-.463 1.656-.695 2.839-.695.61 0 1.19.062 1.741.185a8.54 8.54 0 011.713.589l-.808 1.933c-.487-.21-.946-.384-1.38-.518a4.336 4.336 0 00-1.31-.202c-.392 0-.688.052-.887.158a.514.514 0 00-.299.483c0 .158.05.299.149.422.106.123.305.26.598.413a22 22 0 001.309.571c.557.229 1.041.47 1.451.721.41.246.726.554.949.923.223.363.334.835.334 1.415zm8.947 0c0 .668-.158 1.233-.474 1.696-.311.457-.777.806-1.398 1.046-.621.235-1.394.352-2.32.352-.686 0-1.275-.044-1.767-.132a7.27 7.27 0 01-1.476-.44V21.39c.533.24 1.104.44 1.713.597.616.153 1.155.229 1.618.229.521 0 .893-.076 1.116-.229.228-.158.343-.363.343-.615a.727.727 0 00-.141-.44c-.088-.134-.281-.284-.58-.448-.299-.17-.768-.39-1.406-.659a9.295 9.295 0 01-1.521-.782c-.392-.264-.685-.574-.879-.932-.187-.363-.281-.823-.281-1.38 0-.908.352-1.59 1.055-2.047.709-.463 1.655-.695 2.839-.695.609 0 1.189.062 1.74.185.556.123 1.128.32 1.714.589l-.809 1.933c-.486-.21-.946-.384-1.38-.518a4.334 4.334 0 00-1.309-.202c-.393 0-.689.052-.888.158a.515.515 0 00-.299.483c0 .158.05.299.15.422.105.123.304.26.597.413.299.147.736.337 1.31.571.556.229 1.04.47 1.45.721.41.246.726.554.949.923.223.363.334.835.334 1.415zm7.559-7.092c1.107 0 2.001.43 2.68 1.291.686.862 1.029 2.124 1.029 3.788 0 1.114-.161 2.051-.484 2.813-.322.756-.767 1.327-1.336 1.714-.568.386-1.221.58-1.96.58-.474 0-.881-.059-1.221-.176a3.133 3.133 0 01-.87-.466 4.072 4.072 0 01-.624-.615h-.141a7.427 7.427 0 01.141 1.441v3.964h-2.681v-14.15h2.18l.378 1.274h.123c.175-.263.389-.507.641-.73a2.83 2.83 0 01.905-.527 3.506 3.506 0 011.24-.202zm-.862 2.144c-.468 0-.84.096-1.116.29-.275.193-.477.483-.606.87-.123.387-.191.876-.202 1.468v.29c0 .633.058 1.169.175 1.608.123.44.326.774.607 1.002.287.229.679.343 1.178.343.41 0 .747-.114 1.01-.343.264-.228.46-.562.589-1.002.135-.445.202-.987.202-1.626 0-.96-.149-1.684-.448-2.17-.299-.487-.762-.73-1.389-.73zm15.715 2.936c0 .82-.111 1.546-.334 2.179a4.296 4.296 0 01-.958 1.608c-.416.434-.92.762-1.511.985-.586.223-1.249.334-1.987.334a5.28 5.28 0 01-1.907-.334 4.244 4.244 0 01-1.503-.985 4.581 4.581 0 01-.984-1.608c-.229-.633-.343-1.36-.343-2.18 0-1.09.193-2.012.58-2.768a3.98 3.98 0 011.652-1.723c.715-.393 1.568-.589 2.558-.589.92 0 1.734.196 2.443.59a4.138 4.138 0 011.679 1.722c.41.756.615 1.679.615 2.768zm-6.794 0c0 .644.071 1.186.211 1.625.141.44.361.77.659.994.299.222.689.334 1.169.334.475 0 .859-.112 1.152-.334.299-.223.515-.554.65-.994.141-.44.211-.981.211-1.626 0-.65-.07-1.19-.211-1.617-.135-.433-.351-.759-.65-.975-.299-.217-.689-.326-1.169-.326-.709 0-1.225.244-1.547.73-.317.486-.475 1.216-.475 2.188zm14.493-5.08c.135 0 .29.008.466.026.182.011.328.029.44.052l-.202 2.514a1.626 1.626 0 00-.378-.062 3.815 3.815 0 00-.413-.026c-.346 0-.683.044-1.011.132a2.475 2.475 0 00-.87.43 2.035 2.035 0 00-.616.774c-.146.317-.219.706-.219 1.169V24h-2.681v-9.826h2.03l.396 1.652h.132a4.12 4.12 0 01.72-.914 3.44 3.44 0 01.994-.668 2.9 2.9 0 011.212-.255zm6.83 8.05c.293 0 .577-.03.852-.088a8.3 8.3 0 00.835-.22v1.995a4.889 4.889 0 01-1.072.317 6.82 6.82 0 01-1.389.132 4.229 4.229 0 01-1.582-.281c-.463-.194-.829-.525-1.099-.994-.263-.474-.395-1.133-.395-1.977v-4.738h-1.283v-1.133l1.476-.897.774-2.074h1.714v2.092h2.751v2.012H149.6v4.738c0 .375.105.656.316.844.217.181.501.272.853.272zM167.204 24l-.932-3.059h-4.684L160.656 24h-2.935l4.535-12.902h3.331L170.14 24h-2.936zm-1.582-5.344l-.932-2.988c-.058-.2-.137-.454-.237-.765-.094-.316-.19-.635-.29-.958-.094-.328-.17-.612-.228-.852-.059.24-.141.539-.247.896a69.63 69.63 0 01-.29 1.002c-.093.317-.161.542-.202.677l-.923 2.988h3.349zm11.399-4.666c1.108 0 2.001.43 2.681 1.291.686.862 1.028 2.124 1.028 3.788 0 1.114-.161 2.051-.483 2.813-.322.756-.768 1.327-1.336 1.714-.568.386-1.222.58-1.96.58-.474 0-.882-.059-1.222-.176a3.162 3.162 0 01-.87-.466 4.165 4.165 0 01-.624-.615h-.14a7.42 7.42 0 01.14 1.441v3.964h-2.68v-14.15h2.179l.378 1.274h.123c.176-.263.39-.507.642-.73a2.83 2.83 0 01.905-.527 3.504 3.504 0 011.239-.202zm-.861 2.144c-.469 0-.841.096-1.116.29-.275.193-.478.483-.606.87-.124.387-.191.876-.203 1.468v.29c0 .633.059 1.169.176 1.608.123.44.325.774.607 1.002.287.229.679.343 1.177.343.41 0 .747-.114 1.011-.343.264-.228.46-.562.589-1.002.135-.445.202-.987.202-1.626 0-.96-.149-1.684-.448-2.17-.299-.487-.762-.73-1.389-.73zm12.252-2.144c1.108 0 2.001.43 2.681 1.291.685.862 1.028 2.124 1.028 3.788 0 1.114-.161 2.051-.483 2.813-.323.756-.768 1.327-1.336 1.714-.569.386-1.222.58-1.96.58-.475 0-.882-.059-1.222-.176a3.133 3.133 0 01-.87-.466 4.165 4.165 0 01-.624-.615h-.141a7.24 7.24 0 01.141 1.441v3.964h-2.681v-14.15h2.18l.378 1.274h.123c.176-.263.39-.507.642-.73a2.82 2.82 0 01.905-.527c.357-.134.77-.202 1.239-.202zm-.861 2.144c-.469 0-.841.096-1.116.29-.276.193-.478.483-.607.87-.123.387-.19.876-.202 1.468v.29c0 .633.059 1.169.176 1.608.123.44.325.774.606 1.002.287.229.68.343 1.178.343.41 0 .747-.114 1.011-.343.263-.228.46-.562.589-1.002.134-.445.202-.987.202-1.626 0-.96-.15-1.684-.449-2.17-.298-.487-.761-.73-1.388-.73z" fill="#fff"/><circle cx="18" cy="18" r="18" fill="#fff"/><path fill-rule="evenodd" clip-rule="evenodd" d="M14.692 7.063c1.57 0 2.845 1.998 2.845 4.46 0 2.463-1.274 4.46-2.845 4.46-1.57 0-2.845-1.995-2.845-4.46.002-2.462 1.275-4.46 2.845-4.46zM18.31 17.86c3.331.007 3.746 2.265 6.554 6.128 1.4 2.812-.418 4.584-3.534 3.825-1.413-.736-2.407-.996-3.404-.962-1.728.061-2.164 1.227-4.173 1.145-1.55-.043-2.249-.708-2.384-1.721-.146-1.077.26-1.757.755-2.647 1.921-3.466 3.907-6.202 6.186-5.768zm-9.112-4.18c-1.175.475-1.55 2.353-.837 4.193.711 1.84 2.24 2.948 3.414 2.473 1.175-.475 1.549-2.353.837-4.194-.711-1.84-2.24-2.948-3.414-2.473zm17.604 0c1.175.475 1.55 2.353.837 4.193-.711 1.84-2.241 2.948-3.414 2.473-1.175-.475-1.549-2.353-.837-4.194.711-1.84 2.24-2.948 3.414-2.473zM21.256 7c1.57 0 2.845 1.998 2.845 4.46 0 2.463-1.275 4.46-2.845 4.46-1.57 0-2.845-1.995-2.845-4.46C18.413 8.998 19.686 7 21.256 7z" fill="#007AFE"/></svg>